<?xml version="1.0" encoding="UTF-8"?> <svg xmlns="http://www.w3.org/2000/svg" width="313" height="138" viewBox="0 0 313 138" fill="none"> <path d="M85.6405 53.0283H55.837L61.286 30.2983H83.1724L83.5625 28.6722H61.6761L67.9486 2.50723H97.7533L98.1434 0.88118H59.8654L59.4753 2.50723L53.2028 28.6722L52.8127 30.2983L47.3637 53.0283L46.9724 54.6555H85.2504L85.6405 53.0283Z" fill="white"></path> <path d="M117.181 76.6047L118.285 72.0016C119.921 65.1806 114.712 58.6321 107.651 58.6321H79.1336L78.7376 60.2594L71.9016 88.7953L71.5139 90.4226L64.572 119.366H73.0453L79.9848 90.4226H99.5657C103.639 90.4225 107.593 89.0587 110.789 86.5514C113.986 84.0441 116.237 80.5398 117.181 76.6047ZM110.016 71.1467L108.791 76.252C107.935 79.8241 105.891 83.0051 102.989 85.2811C100.088 87.5571 96.4982 88.7952 92.8008 88.7953H80.3749L87.2157 60.2594H101.356C102.7 60.2594 104.027 60.5618 105.237 61.1438C106.447 61.7258 107.508 62.5724 108.341 63.62C109.175 64.6676 109.758 65.889 110.048 67.1926C110.338 68.4961 110.327 69.848 110.016 71.1467Z" fill="white"></path> <path d="M282.065 56.5984L285.452 42.4661L285.843 40.8389L289.383 26.0718L295.422 0.88118H286.949L278.917 34.3813L278.506 36.0983L277.369 40.8389L276.979 42.4661L273.591 56.5984L273.201 58.2256H312.61L313 56.5984H282.065Z" fill="white"></path> <path d="M95.1486 30.2983L90.2498 53.0283L89.8994 54.6555H91.1455L91.497 53.0283L96.3947 30.2983L96.745 28.6722L102.307 2.86472L117.208 41.1522L122.452 54.6232V54.6244L124.011 58.6322L124.644 60.2594L127.621 67.9066V67.9078L127.792 68.3478H128.773L131.444 55.9576L136.598 32.0427L136.948 30.4155L142.963 2.50723L143.313 0.88118H142.066L141.716 2.50723L135.701 30.4155L135.351 32.0427L130.641 53.8951L125.682 41.1522V41.151L120.437 27.6787L110.009 0.88118H101.489L101.138 2.50723L95.4989 28.6722L95.1486 30.2983Z" fill="white"></path> <path d="M193.516 128.449L190.506 122.38L189.248 119.841L188.748 118.832L188.295 117.914L184.803 110.852L181.327 103.834H181.975C185.673 103.834 189.263 102.596 192.164 100.319C195.066 98.0431 197.11 94.8618 197.967 91.2894L199.332 85.5935C200.876 79.1586 195.961 72.982 189.302 72.982H161.207L160.822 74.6069L159.93 78.3301L154.205 102.204L153.815 103.831L149.978 119.839H158.451L162.291 103.834H172.56L180.488 119.841L181.944 122.779L182.281 123.46L182.736 124.378L187.653 134.302L189.418 137.865H198.184L195.535 132.514L193.516 128.449ZM174.186 102.207H162.678L165.639 89.8618L168.498 77.9343L169.295 74.6081H182.206C183.552 74.6077 184.881 74.9102 186.092 75.4929C187.304 76.0756 188.366 76.9232 189.2 77.9722C190.035 79.0212 190.619 80.2443 190.909 81.5495C191.199 82.8548 191.187 84.2084 190.875 85.5086L189.81 89.9503C188.974 93.4407 186.976 96.549 184.141 98.7729C181.306 100.997 177.799 102.207 174.186 102.207Z" fill="white"></path> <path d="M156.618 30.4155L156.228 32.0427L152.817 46.2694L149.958 58.197L146.83 71.24H155.303L155.667 69.7252L158.526 57.7976L164.701 32.0427L165.091 30.4155L171.783 2.50723H188.885L189.275 0.88118H146.572L146.182 2.50723H163.309L156.618 30.4155Z" fill="white"></path> <path d="M184.543 32.0427L175.146 71.24H183.619L193.017 32.0427H204.053L208.793 46.126L212.111 55.9875L212.865 58.2245H221.338L220.586 55.9887L216.671 44.3576L215.636 41.2897L212.527 32.0427C216.457 32.0424 220.272 30.7264 223.356 28.3073C226.44 25.8881 228.613 22.5071 229.524 18.7103L230.715 13.7401C232.288 7.17972 227.278 0.88118 220.487 0.88118H192.014L191.624 2.51081L184.934 30.4191L184.543 32.0427ZM197.609 12.89L200.095 2.51081H212.832C219.005 2.51081 223.558 8.23665 222.129 14.2004L221.188 18.1269C220.348 21.6276 218.345 24.745 215.501 26.9754C212.658 29.2058 209.14 30.4191 205.516 30.4191H193.404L197.609 12.89Z" fill="white"></path> <path d="M229.189 81.5582V81.557L240.382 71.24L249.1 63.2042H247.649L238.932 71.24L228.846 80.536L227.587 81.6969L221.119 87.6595L212.958 95.1823L217.406 76.6263L218.093 73.7627V73.7615L218.698 71.24L220.356 64.3221L220.624 63.2042H212.151L210.225 71.24L202.08 105.209L201.668 106.926V106.927L196.508 128.449H204.982L207.045 119.841L212.546 96.9004V96.8993L221.462 88.6805L231.949 119.841H240.423L227.93 82.7192V82.718L229.189 81.5582Z" fill="white"></path> <path d="M268.238 45.5604L268.045 44.3995L267.725 42.4661L267.455 40.8389L260.833 0.88118H258.967L253.734 9.13098L233.606 40.8389L232.573 42.4661L223.604 56.5984L222.571 58.2268H224.225L225.258 56.5996L234.228 42.4673H259.255L260.7 51.1775L260.892 52.3384L261.598 56.5996L261.868 58.2268H270.341L270.071 56.5996L268.238 45.5604ZM235.257 40.8389L254.076 11.1946L258.985 40.8389H235.257Z" fill="white"></path> <path d="M136.339 104.081L137.784 112.791L137.976 113.952L138.682 118.214L138.951 119.841H147.425L147.155 118.214L145.327 107.176L145.135 106.015L144.815 104.081L144.545 102.454L137.923 62.4964H136.05L130.816 70.7462L110.69 102.454L109.657 104.081L100.688 118.214L99.6548 119.841H101.309L102.342 118.214L111.311 104.081H136.339ZM131.162 72.8098L136.072 102.454H112.344L131.162 72.8098Z" fill="white"></path> <path d="M33.4083 0.881174C33.4083 0.881174 43.9187 0.203256 48.9018 8.67663L50.4669 7.79546C50.4669 7.79546 45.0793 0.271406 33.5443 0C8.22189 0 1.94095 21.7424 0.947696 25.884C-0.0455531 30.0257 -4.33158 54.9723 19.2789 54.9723C19.2789 54.9723 36.4109 55.7184 45.8305 39.721H44.8674C44.8674 39.721 39.8939 50.16 21.1245 50.16C2.3551 50.16 9.76534 24.4469 9.76534 24.4469C9.76534 24.4469 13.8864 0.881174 33.4083 0.881174Z" fill="white"></path> <path d="M65.6326 132.102C65.6326 135.211 68.0176 137.629 71.2297 137.629C72.4 137.625 73.5398 137.259 74.4911 136.582V135.105C74.1257 135.47 73.7043 135.774 73.2427 136.007C72.6201 136.327 71.9307 136.498 71.2297 136.507C69.2504 136.507 66.8654 135.041 66.8654 132.125C66.8654 129.643 68.7146 127.645 71.214 127.645C71.8584 127.653 72.4938 127.796 73.0789 128.064C73.6019 128.318 74.0791 128.656 74.4911 129.064V127.573C73.5778 126.869 72.4507 126.494 71.2947 126.51C68.0501 126.511 65.6326 128.895 65.6326 132.102Z" fill="white"></path> <path d="M83.4159 126.688H82.2144V137.436H83.4159V126.688Z" fill="white"></path> <path d="M89.0684 127.817H93.1822V137.436H94.3838V127.817H98.4976V126.688H89.0684V127.817Z" fill="white"></path> <path d="M107.851 131.49L105.093 126.688H103.698L107.25 132.811V137.436H108.452V132.811L112.037 126.688H110.642L107.851 131.49Z" fill="white"></path> <path d="M135.106 134.745L131.894 127.873L128.503 134.745L125.647 126.688H124.316L128.47 138L131.877 131.128L135.058 138L139.602 126.688H138.27L135.106 134.745Z" fill="white"></path> <path d="M142.554 137.436H143.878L145.176 134.406H149.785L151.05 137.436H152.374L147.522 126.173L142.554 137.436ZM145.653 133.278L147.503 128.974L149.32 133.278H145.653Z" fill="white"></path> <path d="M158.681 126.688H157.481V137.436H164.719V136.308H158.681V126.688Z" fill="white"></path> <path d="M178.508 126.688H176.886L172.277 131.297V126.688H171.077V137.436H172.277V132.811L172.587 132.506L177.016 137.436H178.67L173.447 131.699L178.508 126.688Z" fill="white"></path> </svg> 