<svg id="Layer_1" data-name="Layer 1" xmlns="http://www.w3.org/2000/svg" viewBox="0 0 198.6 50"><title>empireArtboard 1</title><path id="XMLID_1_1525346549174" data-name="XMLID 1  1525346549174" d="M38.7,13.7H34.1V36.4h4.6Zm-11.4,0H22.7V36.4h4.6Zm-11.4,0H11.3V36.4h4.6ZM8.2,4.6H41.8V0H8.2ZM4.6,41.8V8.2H0V41.8ZM45.4,8.2V41.8H50V8.2ZM41.8,45.4H8.2V50H41.8Zm38.1-9.1h4.4V13.7H78.7L72.3,30.8,66,13.7H60.3V36.4h4.3V21l5.8,15.4h3.7L79.9,21V36.3Zm8.8,0h16.7v-4h-12V26.7h11V22.6h-11v-5h11.7v-4H88.7Zm34.8,0h5.2l-4.9-9.6a6.16,6.16,0,0,0,2.8-2.5,7.79,7.79,0,0,0,.9-3.7,7.46,7.46,0,0,0-.4-2.6,5.41,5.41,0,0,0-1.5-2.2,7.61,7.61,0,0,0-2.8-1.5,16.11,16.11,0,0,0-4.4-.6h-8.8V36.3h4.7V27.8h4.9Zm-9.2-12.4V17.6h4a14.92,14.92,0,0,1,2.1.2,3.1,3.1,0,0,1,1.3.6,2.29,2.29,0,0,1,.7,1,5,5,0,0,1,.2,1.2,6.75,6.75,0,0,1-.2,1.4,2.29,2.29,0,0,1-.7,1,5.39,5.39,0,0,1-1.3.7,6.48,6.48,0,0,1-2,.2Zm33.9,12.4h5.1l-9-22.7h-4.8l-9,22.7h4.9l1.9-5.2h9Zm-6.5-17.5,3.1,8.4h-6.2Zm30.9,17.5h5.1l-9-22.7h-4.8l-9,22.7h4.9l1.9-5.2h9Zm-6.4-17.5,3.1,8.4h-6.2Zm32-.3a6.63,6.63,0,0,0-.9-1.9,5.51,5.51,0,0,0-1.7-1.7,9,9,0,0,0-2.8-1.3,14.75,14.75,0,0,0-7.8,0,7.13,7.13,0,0,0-2.9,1.4,6.74,6.74,0,0,0-1.9,2.2,5.92,5.92,0,0,0-.7,2.9,5.51,5.51,0,0,0,1.9,4.5,12,12,0,0,0,5.7,2.1l3.2.6a4.71,4.71,0,0,1,2.6,1.1,2.19,2.19,0,0,1,.7,1.7,2.81,2.81,0,0,1-1,2.1,5.73,5.73,0,0,1-3.4.8,9.09,9.09,0,0,1-3.7-.8,7.86,7.86,0,0,1-3.2-2.8L179,32.5a10.91,10.91,0,0,0,4.1,3.3,13.64,13.64,0,0,0,6,1.1,15.23,15.23,0,0,0,4.2-.6,8.7,8.7,0,0,0,3-1.6,5.78,5.78,0,0,0,1.8-2.3,7.17,7.17,0,0,0,.6-2.9,5.89,5.89,0,0,0-1.7-4.2,11.29,11.29,0,0,0-5.6-2.4l-3.5-.6a5.23,5.23,0,0,1-2.7-1,2.28,2.28,0,0,1-.7-1.9,2.23,2.23,0,0,1,1-1.8,3.36,3.36,0,0,1,1.4-.5,14.92,14.92,0,0,1,2.1-.2,5.91,5.91,0,0,1,3.4.8,5.46,5.46,0,0,1,2,2.5Z"/></svg>