<svg id="Layer_1" data-name="Layer 1" xmlns="http://www.w3.org/2000/svg" viewBox="0 0 50 50"><defs><style>.cls-1{fill:#fff;}</style></defs><title>empireArtboard 3 copy 2</title><path class="cls-1" d="M40.9,17.19a.78.78,0,1,1,.48-.16.78.78,0,0,1-.48.16M43,23.43H22.65a.79.79,0,0,1-.78-.78,11,11,0,0,1,3.21-7.76,11,11,0,0,1,3.49-2.35,10.91,10.91,0,0,1,4.27-.86h0a11,11,0,0,1,2.91.39,10.91,10.91,0,0,1,2.61,1.1.79.79,0,0,1,.39.67.78.78,0,0,1-.11.4.78.78,0,0,1-1.07.28,9.41,9.41,0,0,0-14.11,7.35H42.21a9.43,9.43,0,0,0-.32-1.77.78.78,0,0,1,.54-1,.77.77,0,0,1,.21,0,.79.79,0,0,1,.75.57,11,11,0,0,1,.41,3,.79.79,0,0,1-.78.78"/><path class="cls-1" d="M27.37,21.86H38.31a13.93,13.93,0,0,0-1-4.61,7.52,7.52,0,0,0-2.48-3.35,3.34,3.34,0,0,0-4,0,6.44,6.44,0,0,0-1.77,1.95,12.81,12.81,0,0,0-1.7,6m11.74,1.57H26.57a.79.79,0,0,1-.78-.78,15.81,15.81,0,0,1,1.13-6,11,11,0,0,1,1.31-2.33A7.51,7.51,0,0,1,30,12.61a5.08,5.08,0,0,1,2.88-.94h0a5.08,5.08,0,0,1,2.88.94A8,8,0,0,1,37.94,15a14.77,14.77,0,0,1,2,7.62.79.79,0,0,1-.78.78"/><path class="cls-1" d="M31.28,21.86H34.4a28.2,28.2,0,0,0-.91-7.17A5,5,0,0,0,33,13.44l-.11-.15a1.74,1.74,0,0,0-.23.34,8.26,8.26,0,0,0-.67,2,31.57,31.57,0,0,0-.66,6.25m3.91,1.57h-4.7a.79.79,0,0,1-.78-.78A40.06,40.06,0,0,1,30,17.47a17.74,17.74,0,0,1,.86-3.82,4.06,4.06,0,0,1,1-1.58,1.51,1.51,0,0,1,1-.4h0a1.51,1.51,0,0,1,1,.4,2.9,2.9,0,0,1,.61.8,9.66,9.66,0,0,1,.82,2.38A34.48,34.48,0,0,1,36,22.65a.79.79,0,0,1-.78.78"/><path class="cls-1" d="M27.64,37a.78.78,0,1,1,.55-.23.78.78,0,0,1-.55.23m2.85,2.85h-22A.78.78,0,0,1,8,38.56l3.92-3.92a.79.79,0,0,1,.55-.23h11.7a.78.78,0,0,1,0,1.57H12.78l-2.35,2.35H30.06a.79.79,0,0,1,.34-.08.77.77,0,0,1,.55.23l.08.08a.78.78,0,0,1-.55,1.34"/><path class="cls-1" d="M32.84,39.9a.79.79,0,0,1-.78-.78V22.65a.78.78,0,0,1,1.57,0V39.11a.79.79,0,0,1-.78.78"/><path class="cls-1" d="M20.3,36a.78.78,0,0,1-.6-1.29l4.7-5.49a.78.78,0,1,1,1.19,1l-4.7,5.49a.78.78,0,0,1-.59.27"/><path class="cls-1" d="M14.81,36a.78.78,0,0,1-.63-1.25l2.35-3.14a.79.79,0,0,1,.63-.31h5.49a.78.78,0,0,1,0,1.57h-5.1l-2.12,2.82a.78.78,0,0,1-.63.31"/><path class="cls-1" d="M41.46,39.9H7a.78.78,0,1,1,0-1.57H41.46a.78.78,0,0,1,0,1.57"/><path class="cls-1" d="M29.7,36H26.57a.78.78,0,0,1,0-1.57H29.7a.78.78,0,1,1,0,1.57"/><path class="cls-1" d="M15.59,22.56a.78.78,0,0,1-.55-.23,1.32,1.32,0,0,0-1-.47h0a1.5,1.5,0,0,0-.71.21,2,2,0,0,0-.36.26h0a.78.78,0,0,1-1.1-1.11h0a3.45,3.45,0,0,1,.61-.46,3.07,3.07,0,0,1,1.57-.46,2.58,2.58,0,0,1,1.05.22,3.19,3.19,0,0,1,1,.7.78.78,0,0,1-.55,1.34"/><path class="cls-1" d="M15.59,22.56h0A.78.78,0,0,1,15,21.22a3.19,3.19,0,0,1,1-.7,2.58,2.58,0,0,1,1.05-.22,3.07,3.07,0,0,1,1.57.46,3.42,3.42,0,0,1,.61.46h0a.78.78,0,0,1-1.1,1.11h0l-.06-.05a2.12,2.12,0,0,0-.25-.17,1.51,1.51,0,0,0-.75-.24h0a1.32,1.32,0,0,0-1,.47.78.78,0,0,1-.55.23"/><path class="cls-1" d="M21.86,12.2h0a.78.78,0,0,1-.55-1.34h0a2.8,2.8,0,0,1,.5-.38,2.47,2.47,0,0,1,1.27-.37h0a2.38,2.38,0,0,1,1.66.75A.78.78,0,1,1,23.66,12a.8.8,0,0,0-.58-.29h0a.92.92,0,0,0-.43.13,1.33,1.33,0,0,0-.23.16h0a.78.78,0,0,1-.55.23"/><path class="cls-1" d="M24.22,12.2h0a.78.78,0,0,1-.55-1.34,2.36,2.36,0,0,1,1.69-.75,2.47,2.47,0,0,1,1.27.37,2.89,2.89,0,0,1,.5.38h0A.78.78,0,0,1,26,12h0l0,0-.16-.11a1,1,0,0,0-.47-.15.8.8,0,0,0-.58.29.78.78,0,0,1-.55.23"/><path class="cls-1" d="M14,12.46a2.35,2.35,0,1,0,2.35,2.35A2.36,2.36,0,0,0,14,12.46m0,6.27h0a3.9,3.9,0,1,1,1.53-.31,3.89,3.89,0,0,1-1.53.31"/><path class="cls-1" d="M39.9,39.9a.79.79,0,0,1-.78-.78V32.06a.78.78,0,0,1,1.57,0v7.05a.79.79,0,0,1-.78.78"/><path class="cls-1" d="M36.76,39.9a.79.79,0,0,1-.78-.78V36.76a.78.78,0,1,1,1.57,0v2.35a.79.79,0,0,1-.78.78"/></svg>