<svg id="Layer_1" data-name="Layer 1" xmlns="http://www.w3.org/2000/svg" viewBox="0 0 50 50"><defs><style>.cls-1{fill:#fff;}</style></defs><title>empireArtboard 3 copy</title><path class="cls-1" d="M32.51,18.2v1.31h5.32c0-.36,0-.69,0-1s-.08-.3-.3-.29h-5M37,33.31V29.14H33.61a.62.62,0,0,0,0,.12c0,1.27,0,2.53,0,3.8,0,.2.08.26.27.25H37m-8.67-4.17c0,.12,0,.22,0,.32,0,1.17,0,2.33,0,3.49,0,.3.1.37.38.36,1,0,2,0,3,0l.33,0V29.14Zm-5.22,0c0,1.35,0,2.66,0,4,0,.07.18.19.27.19,1.05,0,2.1,0,3.15,0,.2,0,.3,0,.29-.27,0-1.26,0-2.51,0-3.77a.63.63,0,0,0,0-.14Zm-5.2,4.13.13,0h3.36c.22,0,.24-.12.23-.29,0-.76,0-1.52,0-2.28v-1.6H17.94Zm-5.3,0,.29,0c1.06,0,2.12,0,3.19,0,.27,0,.32-.1.32-.35,0-1.19,0-2.37,0-3.56,0-.09,0-.18,0-.27H12.64ZM37.82,21.06h-5.3v3h5.3Zm1.4,4.55H10.45v2H39.22ZM37,40.61c0-.13,0-.22,0-.31,0-1.72,0-3.44,0-5.16,0-.3-.1-.36-.38-.36H13c-.29,0-.37.09-.37.37,0,1.71,0,3.41,0,5.12,0,.11,0,.22,0,.33ZM31,19.54V16.75h8.3c0,.81,0,1.6,0,2.4,0,.32.09.42.41.4a8.72,8.72,0,0,1,1.11,0c.09,0,.23.12.23.19,0,.41,0,.83,0,1.28H39.33v3.07h1.38v5H38.53V41.63c0,.47,0,.47-.47.47H11.62c-.48,0-.48,0-.48-.46V29.13H9c0-.18,0-.31,0-.45,0-1.38,0-2.77,0-4.15,0-.35.09-.44.44-.44H31V21H29.26c0-.46,0-.89,0-1.31,0-.07.16-.17.26-.17.47,0,.94,0,1.48,0"/><path class="cls-1" d="M18.81,9.9l2.09,1.78a.18.18,0,0,0,.15,0l.95-.43c-.87-.53-1.66-1-2.43-1.5-.3-.2-.5-.16-.76.13m4,8.76c.37,0,.54-.17.55-.54,0-.81.07-1.61.11-2.42,0-.19,0-.38,0-.64-.37.16-.68.28-1,.44-.07,0-.1.19-.09.29.06.53.13,1.05.2,1.58s.11.86.17,1.29M17.2,16.88l.67-.57a5,5,0,0,1,1-.78c3-1.31,6-2.58,8.93-3.86a1.61,1.61,0,0,0,.48-.27c.11-.11.25-.3.22-.42a.52.52,0,0,0-.39-.28,2.53,2.53,0,0,0-.85,0,13.27,13.27,0,0,0-1.39.44,52.55,52.55,0,0,0-6.67,3.06,2,2,0,0,1-2.2.07c-.38-.24-.75-.08-1.16.06l1.36,2.51m4.43,3.89L21,16.13a12.55,12.55,0,0,0-1.72.91c-.77.57-1.46,1.24-2.18,1.87l-.35.29-3.14-5.82a.78.78,0,0,1,.15-.08c.92-.21,1.84-.44,2.77-.62a1.19,1.19,0,0,1,.72.17,1.34,1.34,0,0,0,1.54-.06,5.46,5.46,0,0,1,.69-.35l-3.15-2.7.27-.2c.77-.51,1.55-1,2.31-1.53a.43.43,0,0,1,.56,0l3.86,2.39a.61.61,0,0,0,.61,0c1.12-.41,2.25-.84,3.39-1.19a2.23,2.23,0,0,1,1.56.16,1.72,1.72,0,0,1,.61,2.85,4.21,4.21,0,0,1-1.26.82c-1,.44-1.93.82-2.91,1.22a.4.4,0,0,0-.29.41c-.07,1.51-.17,3-.24,4.52a.4.4,0,0,1-.3.43c-.86.33-1.71.68-2.57,1l-.32.1"/><path class="cls-1" d="M11,17.08l-.49-1.4,2.54-.9.5,1.39L11,17.08"/><path class="cls-1" d="M17.91,21.59l-.49-1.4,2.54-.9.49,1.4-2.54.9"/><path class="cls-1" d="M12.77,12.56c-.16-.43-.3-.81-.42-1.19a.31.31,0,0,1,.13-.27c.76-.28,1.52-.55,2.33-.83l.49,1.39-2.54.91"/><path class="cls-1" d="M11.56,18.46l2.55-.9.49,1.38-2.55.91-.49-1.39"/><path class="cls-1" d="M9,16.22,9.82,16c.14.43.28.85.39,1.28,0,0-.08.16-.14.18s-.39.13-.63.2L9,16.22"/><path class="cls-1" d="M10.78,11.7l.82-.26.45,1.4-.82.27-.45-1.41"/><path class="cls-1" d="M16.36,22.14l-.45-1.4.82-.27.45,1.4-.83.27"/><path class="cls-1" d="M10.89,18.73l.45,1.4-.82.27L10.07,19l.82-.27"/></svg>