<svg id="Layer_1" data-name="Layer 1" xmlns="http://www.w3.org/2000/svg" viewBox="0 0 50 50"><defs><style>.cls-1{fill:#fff;}</style></defs><title>empireArtboard 3</title><path class="cls-1" d="M18.16,13.14A22.8,22.8,0,0,1,30.4,23.83,22.8,22.8,0,0,1,32,40.2H18.16ZM35.64,40.2h-2a24.32,24.32,0,0,0-1.85-17.07,24.41,24.41,0,0,0-13.6-11.6V9a.76.76,0,1,0-1.52,0V40.2H14.36a.76.76,0,0,0,0,1.52H35.64a.76.76,0,0,0,0-1.52"/><path class="cls-1" d="M21.2,37.16v-3h8a19.37,19.37,0,0,1-.28,3ZM24.78,22H21.2V18.78A19.29,19.29,0,0,1,24.76,22Zm3.74,6.84a18,18,0,0,1,.68,3.8h-8V28.8ZM28,27.28H21.2v-3.8h4.74a17.88,17.88,0,0,1,2,3.8ZM29.51,27a20.17,20.17,0,0,0-8.69-10.27.76.76,0,0,0-1,.28.75.75,0,0,0-.1.38V37.92a.76.76,0,0,0,.76.76h9.12a.76.76,0,0,0,.76-.6A20,20,0,0,0,29.51,27"/></svg>