<svg id="Layer_1" data-name="Layer 1" xmlns="http://www.w3.org/2000/svg" viewBox="0 0 50 50"><defs><style>.cls-1{fill:#fff;}</style></defs><title>empireArtboard 3 copy 5</title><rect class="cls-1" x="25.72" y="26.44" width="3.61" height="8.66"/><rect class="cls-1" x="20.67" y="26.44" width="3.61" height="8.66"/><path class="cls-1" d="M14.17,14.89H35.83a.72.72,0,0,1,.72.72v1.44a.72.72,0,0,1-.72.72H14.17a.72.72,0,0,1-.72-.72V15.61a.72.72,0,0,1,.72-.72"/><path class="cls-1" d="M40.16,20.67H36.55V35.11h3.61a.71.71,0,0,0,.72-.71h0v-13a.71.71,0,0,0-.71-.72h0"/><path class="cls-1" d="M9.11,21.39v13a.71.71,0,0,0,.71.72h3.63V20.67H9.84a.71.71,0,0,0-.72.71h0"/><path class="cls-1" d="M14.89,35.11h4.33V25.72a.72.72,0,0,1,.72-.72H30.05a.72.72,0,0,1,.72.72v9.39h4.33V19.22H14.89Z"/></svg>