<svg id="Layer_1" data-name="Layer 1" xmlns="http://www.w3.org/2000/svg" viewBox="0 0 50 50"><defs><style>.cls-1{fill:#0f2b40;}</style></defs><title>empireArtboard 3 copy 4</title><path class="cls-1" d="M23.92,14.06a.35.35,0,1,1,.35-.35.37.37,0,0,1-.35.35m-1,0a.35.35,0,1,1,.35-.35c0,.17-.13.35-.35.35m6.48-1.13a.48.48,0,0,0-.48-.48H21.57a.48.48,0,0,0-.48.48v1.48a.48.48,0,0,0,.48.48h7.35a.48.48,0,0,0,.48-.48Z"/><path class="cls-1" d="M34.44,34.94l-.78-2.83V27.55l.65.61L35.09,31a.84.84,0,0,0,.78.61l.3.39a.37.37,0,0,0,.57-.48l-.22-.26a.86.86,0,0,0,.13-.65l-.87-3.13a.64.64,0,0,0-.26-.39l-2.22-2.18a1.6,1.6,0,0,0-2.44,0l-1.44,1.87V29l.35-.13c.17-.09.3-.17.35-.35l.35-.43v4.09l-1,3.92v3.65l.35.09a.8.8,0,0,0,1-.56l1.35-5L32.62,36a1,1,0,0,0,.31.43l2.57,2.48c.31.31.87.09,1.09-.3l.26-.44a.91.91,0,0,0-.3-1.09Z"/><path class="cls-1" d="M32.09,23.89a1.84,1.84,0,1,0-1.61-1.83,1.66,1.66,0,0,0,1.61,1.83"/><path class="cls-1" d="M44.45,36.77l-2.83-3.39a1,1,0,0,0-1.39-.13l-.74.61a.49.49,0,0,0,0,.69l3.13,3.74a.49.49,0,0,0,.7,0l1.13-1c.22-.09.22-.43,0-.61"/><path class="cls-1" d="M42.58,38.68,37,32.07a.24.24,0,0,1-.13.22.62.62,0,0,1-.26.09L42.18,39a.26.26,0,0,0,.35,0,.27.27,0,0,0,0-.35"/><path class="cls-1" d="M42.66,39.21a.37.37,0,1,0,.48.57.37.37,0,1,0-.48-.57"/><path class="cls-1" d="M12.87,38.95a.83.83,0,0,0,.83.83h.48a.83.83,0,0,0,.83-.83V33H12.82v6Z"/><path class="cls-1" d="M10.47,38.95a.82.82,0,0,0,.83.83h.52a.83.83,0,0,0,.83-.83V33H10.47Z"/><path class="cls-1" d="M10.3,27.59v1L10,27.94Zm4.92,0,.35.35-.35.61Zm-7,.65,1.61,2.83h5.74l1.61-2.83a.86.86,0,0,0-.13-1l-2.31-2.31a1.55,1.55,0,0,0-1.26-.61l-.48,2-.13-1.57.22-.39h-.78l.22.39-.13,1.57-.48-2a1.55,1.55,0,0,0-1.26.61L8.39,27.24a.74.74,0,0,0-.13,1"/><path class="cls-1" d="M13.91,21.07a5.37,5.37,0,0,0-2.35,0c-.09,0-.13,0-.22,0a2.21,2.21,0,0,0-.22,1,1.75,1.75,0,0,0,1.61,1.83,1.75,1.75,0,0,0,1.65-1.83,2.36,2.36,0,0,0-.22-1c-.09,0-.17,0-.26,0"/><path class="cls-1" d="M11.34,20.28h0a.15.15,0,0,0,.09,0,3,3,0,0,1,2.61,0s0,0,.09,0c.22-.17.48-.87.09-.87-.61,0-.91-.57-1.52-.57s-.91.57-1.52.57c-.3,0-.09.7.17.87"/><path class="cls-1" d="M14.48,20.85a2.1,2.1,0,0,0-1.7-.7,2,2,0,0,0-1.7.7c0,.13.78-.13,1.7-.13s1.7.26,1.7.13"/><path class="cls-1" d="M19.39,31.55H6.12c-.39,0-.7.22-.7.48s.3.48.7.48H19.39c.39,0,.7-.22.7-.48s-.3-.48-.7-.48"/><rect class="cls-1" x="21.57" y="15.48" width="7.35" height="24.45"/><rect class="cls-1" x="18.63" y="32.96" width="0.96" height="6.83"/><rect class="cls-1" x="5.78" y="32.96" width="0.96" height="6.83"/></svg>