<svg id="Layer_1" data-name="Layer 1" xmlns="http://www.w3.org/2000/svg" viewBox="0 0 50 50"><defs><style>.cls-1{fill:#0f2b40;}</style></defs><title>empireArtboard 16 copy 5</title><rect class="cls-1" x="13.88" y="19.58" width="22.23" height="2.35"/><path class="cls-1" d="M16,23.93h.34a.36.36,0,1,1,0,.71H16a.36.36,0,1,1,0-.71m1.79,0h6a.36.36,0,0,1,0,.71h-6a.36.36,0,0,1,0-.71M19.46,28h11.1a5.6,5.6,0,0,0,5.58-5.34H13.88A5.61,5.61,0,0,0,19.46,28"/><path class="cls-1" d="M19.46,28.7a6.29,6.29,0,0,1-1.19-.11L14.79,41h1.64L19.89,28.7Z"/><path class="cls-1" d="M30.56,28.7h-.43L33.59,41h1.64L31.75,28.59a6.29,6.29,0,0,1-1.19.11"/><polygon class="cls-1" points="19.11 34.05 18.69 35.54 31.33 35.54 30.9 34.05 19.11 34.05"/><path class="cls-1" d="M11.76,17a1.39,1.39,0,0,0,1.39,1.39h.7V15.59h-.69A1.39,1.39,0,0,0,11.76,17Z"/><path class="cls-1" d="M18.55,18V17.3h2.57v1.21h1.07V17.3H23a1,1,0,0,0,1.8,0h.76v1.21H26.6V17.3h.82a1,1,0,0,0,1.81,0H30v1.21h1.07V17.3h.79a1,1,0,0,0,1.8,0h.75v1.21h1.07V17.3h2.37a.36.36,0,1,0,0-.71H35.51V15.45H34.44v1.14h-.77a1,1,0,0,0-1.76,0h-.81V15.45H30v1.14h-.81a1,1,0,0,0-1.76,0H26.6V15.45H25.53v1.14h-.78a1,1,0,0,0-1.77,0h-.8V15.45H21.12v1.14H18.55v-.66a.37.37,0,0,0-.39-.34H14.56v2.78h3.61a.38.38,0,0,0,.39-.36"/><path class="cls-1" d="M23.11,13.27a.36.36,0,0,0,.71,0,.93.93,0,0,1,.36-.72,1.59,1.59,0,0,0,0-2.43.93.93,0,0,1-.36-.72.36.36,0,1,0-.71,0,1.62,1.62,0,0,0,.56,1.21.89.89,0,0,1,0,1.44,1.62,1.62,0,0,0-.56,1.21"/><path class="cls-1" d="M26.17,13.27a.36.36,0,0,0,.71,0,.93.93,0,0,1,.36-.72,1.59,1.59,0,0,0,0-2.43.93.93,0,0,1-.36-.72.36.36,0,1,0-.71,0,1.62,1.62,0,0,0,.56,1.21.89.89,0,0,1,0,1.44,1.62,1.62,0,0,0-.56,1.21"/><path class="cls-1" d="M29.15,13.27a.36.36,0,0,0,.71,0,.93.93,0,0,1,.36-.72,1.59,1.59,0,0,0,0-2.43.93.93,0,0,1-.36-.72.36.36,0,1,0-.71,0,1.62,1.62,0,0,0,.56,1.21.89.89,0,0,1,0,1.44,1.62,1.62,0,0,0-.56,1.21"/><path class="cls-1" d="M32.21,13.27a.36.36,0,0,0,.71,0,.93.93,0,0,1,.36-.72,1.59,1.59,0,0,0,0-2.43.93.93,0,0,1-.36-.72.36.36,0,1,0-.71,0,1.62,1.62,0,0,0,.56,1.21.89.89,0,0,1,0,1.44,1.62,1.62,0,0,0-.56,1.21"/></svg>