<svg id="Layer_1" data-name="Layer 1" xmlns="http://www.w3.org/2000/svg" viewBox="0 0 50 50"><defs><style>.cls-1{fill:#0f2b40;}</style></defs><title>empireArtboard 16 copy 2</title><path class="cls-1" d="M24.94,15a3.93,3.93,0,0,1,2.42,3.4H22.52A3.93,3.93,0,0,1,24.94,15m-5.41,3.4a3.93,3.93,0,0,1,3.91-3.7h.29a4.75,4.75,0,0,0-2,3.69H19.53Zm6.9-3.7a3.93,3.93,0,0,1,3.91,3.7H28.19a4.75,4.75,0,0,0-2-3.69h.29M23.89,30.1a1,1,0,0,0-.5-.78,1.07,1.07,0,0,1-.5-1V25.24h0v-.6a.29.29,0,0,1,.57,0v2.76a.27.27,0,0,0,.26.29.31.31,0,0,0,.31-.29l0-2.32v-.44c0-.15.05-.28.21-.28h.13c.15,0,.21.13.21.28v.44l0,2.32a.31.31,0,0,0,.31.29.26.26,0,0,0,.26-.29V24.64a.29.29,0,0,1,.57,0v.6h0v3.12a1.24,1.24,0,0,1-.5,1,1.11,1.11,0,0,0-.5.78L25,36.17h2.54v0a.46.46,0,0,1,.35-.51l2-.49V31.88A2.89,2.89,0,0,1,27.7,30.7c-1.51-2.09-.17-6.18-.12-6.35h5.5c.06.17,1.39,4.26-.12,6.35a2.9,2.9,0,0,1-2.17,1.18v3.25l2,.49a.46.46,0,0,1,.35.51v0h3.49L34.22,18.36h-3a4.74,4.74,0,0,0-6.24-4.29,4.74,4.74,0,0,0-6.24,4.29H15.78L13.41,36.17H23.64Z"/></svg>