<svg id="Layer_1" data-name="Layer 1" xmlns="http://www.w3.org/2000/svg" viewBox="0 0 50 50"><defs><style>.cls-1{fill:#0f2b40;}</style></defs><title>empireArtboard 10 copy 3</title><path class="cls-1" d="M36.41,19.83l-2.48-.53-.64-1.49L34,15.33a.94.94,0,0,0-1.38-1.07l-3.24,2-.06,0a6.58,6.58,0,0,0-1.84,2.07l-1.86,3.31a23.84,23.84,0,0,1-6,.24l-3.32-.29a4.56,4.56,0,0,1-1.89-4.25.69.69,0,1,0-1.38-.11,5.87,5.87,0,0,0,2.7,5.66A.69.69,0,0,0,16,23l3.48.3A25.21,25.21,0,0,0,26.21,23a.69.69,0,0,0,.48-.35l2-3.59a5.2,5.2,0,0,1,1.43-1.63L32.37,16l-.48,1.63a.69.69,0,0,0,0,.47l.88,2.07a.69.69,0,0,0,.49.4l2.29.46a1.75,1.75,0,0,1-1.75,1.68,3.15,3.15,0,0,0-1,.16l-1.38.46a.69.69,0,0,0-.47.76,4.09,4.09,0,0,1-3-.86.69.69,0,0,0-.78,1.14,5.84,5.84,0,0,0,3.29,1.15,2.77,2.77,0,0,0,.38,0c0,.35-.09.79-.19,1.35a4.19,4.19,0,0,0,0,1.57,2.84,2.84,0,0,1,0,1.28l-.95,3.63a.69.69,0,0,0,.08.53l.35.59h-.28a.84.84,0,0,1-.84-.84.82.82,0,0,1,0-.14l.56-3.19a.69.69,0,0,0-.56-.8h0l-6.7-1.17a.71.71,0,0,0-.25,0l-1.23.24a.69.69,0,1,0,.22,1.36h.05l1.1-.22,5.9,1-.45,2.51a2.22,2.22,0,0,0,1.8,2.58,2.18,2.18,0,0,0,.39,0h1.24a.93.93,0,0,0,.79-1.05.94.94,0,0,0,0-.17l-.73-1.22L32,30.1a4.2,4.2,0,0,0,.06-1.9,2.86,2.86,0,0,1,0-1.06,12.43,12.43,0,0,0,.24-2.59l1-.32a1.76,1.76,0,0,1,.55-.09A3.13,3.13,0,0,0,37,21v-.5a.69.69,0,0,0-.55-.68"/><path class="cls-1" d="M18.81,26.4a.69.69,0,0,0-.57.79,7.87,7.87,0,0,1-.13,3.21l-.74,3a.69.69,0,0,0,0,.43l.28.69h-.21a.85.85,0,0,1-.85-.84,1,1,0,0,1,0-.12L17,31.17a.69.69,0,0,0,0-.35L15.47,27a4.18,4.18,0,0,1,.31-2.59.69.69,0,1,0-1.26-.59,5.5,5.5,0,0,0-.39,3.55l0,.08,1.4,3.65-.31,2.18a2.23,2.23,0,0,0,1.89,2.52l.33,0h1.2a.69.69,0,0,0,.69-.69.67.67,0,0,0,0-.23.66.66,0,0,0,0-.2l-.5-1.26.69-2.76A9.22,9.22,0,0,0,19.61,27a.69.69,0,0,0-.8-.55"/><path class="cls-1" d="M30.17,21.07l.09.1a.69.69,0,0,0,1,0l.09-.1.07-.12a.86.86,0,0,0,0-.13.61.61,0,0,0,0-.13.69.69,0,0,0-1.38,0,.5.5,0,0,0,0,.13.54.54,0,0,0,0,.13l.08.12"/></svg>