<svg id="Layer_1" data-name="Layer 1" xmlns="http://www.w3.org/2000/svg" viewBox="0 0 50 50"><defs><style>.cls-1{fill:#0f2b40;}</style></defs><title>empireArtboard 16 copy 4</title><path class="cls-1" d="M32,38.25V28.7a13.92,13.92,0,0,0,4.81-1.57v9.11c-.72.89-2.4,1.59-4.81,2m-12.29.25V28.93A48.4,48.4,0,0,0,25,29.2a48.4,48.4,0,0,0,5.31-.27V38.5a45.71,45.71,0,0,1-5.31.28,45.52,45.52,0,0,1-5.31-.28M13.2,36.23V27.12A13.94,13.94,0,0,0,18,28.7v9.55c-2.41-.44-4.09-1.13-4.81-2M22.62,18l-4.33,9a10.37,10.37,0,0,1-4.72-1.69ZM30,27.27a46.43,46.43,0,0,1-5,.24,46.44,46.44,0,0,1-5-.24L25,17ZM31.72,27l-4.34-9,9.05,7.29A10.35,10.35,0,0,1,31.72,27m6.76-1.84a.76.76,0,0,0,0-.11l0-.07,0-.08,0-.07,0-.07,0-.06-.05-.06-.06-.05,0,0L25.84,14.65V9.87a.34.34,0,0,0-.15-.28.33.33,0,0,0-.31,0l-4.93,1.93a.34.34,0,0,0,0,.63l3.7,1.45v1.08L11.83,24.57l0,0-.06.05-.05.06,0,.06,0,.08,0,.07,0,.08,0,.07a.84.84,0,0,0,0,.11s0,0,0,0V36.74l.13.21c1.86,2.91,8.29,3.51,13.35,3.51s11.5-.61,13.35-3.51l.13-.21V25.18"/></svg>