<svg id="Layer_1" data-name="Layer 1" xmlns="http://www.w3.org/2000/svg" viewBox="0 0 50 50"><defs><style>.cls-1{fill:#0f2b40;}</style></defs><title>empireArtboard 10 copy</title><path class="cls-1" d="M41.1,40.52H38.8V37.07h2.3Zm-5.75-3.45h2.3v3.45h-2.3Zm-6.9.57V35.92H32a1.73,1.73,0,0,0,1.62,1.15h.57v3.45H31.32a2.88,2.88,0,0,1-2.87-2.87m3.45-2.87H28.45v-2.3H31.9Zm-5.18-4.6H23.85V26.72H29a2.88,2.88,0,0,1,2.88,2.87v1.73H28.34a1.73,1.73,0,0,0-1.62-1.15m-4,10.35H21.55v-9.2H22.7ZM12.93,30.17V26.72a3.45,3.45,0,1,1,6.9,0v3.45Zm5.17,2.3H14.65V31.32H18.1Zm-3.45,5.75H18.1v1.15H14.65Zm3.45-3.45H14.65V33.62H18.1Zm-3.45,1.15H18.1v1.15H14.65Zm-3.45,4.6H10.05v-9.2H11.2Zm11.5-20.7V30.17H21V26.72a4.6,4.6,0,1,0-9.2,0v3.45H10.05V19.82Zm-6.32-10,6.87,8.84H9.5Zm25.3,26.09h-8a.57.57,0,0,1-.57-.57V29.59a4,4,0,0,0-4-4H23.85V19.82h.57a.58.58,0,0,0,.45-.93l-8-10.35A.59.59,0,0,0,16,8.47l-.07.07-8,10.35a.57.57,0,0,0,.45.93H8.9V41.09a.58.58,0,0,0,.57.57h2.3a.58.58,0,0,0,.57-.57V31.32H13.5v9.77a.57.57,0,0,0,1.15,0v-.58H18.1v.58a.57.57,0,0,0,1.15,0V31.32H20.4v9.77a.58.58,0,0,0,.57.57h2.3a.58.58,0,0,0,.57-.57V31.32h2.88a.58.58,0,0,1,.57.57v5.75a4,4,0,0,0,4,4H41.67a.58.58,0,0,0,.57-.57v-4.6a.57.57,0,0,0-.57-.58"/></svg>