<svg id="Layer_1" data-name="Layer 1" xmlns="http://www.w3.org/2000/svg" viewBox="0 0 50 50"><defs><style>.cls-1{fill:#0f2b40;}</style></defs><title>empireArtboard 3 copy 3</title><path class="cls-1" d="M18.72,20a2.44,2.44,0,0,0-.56-.34,6.21,6.21,0,0,0-4,0,3.91,3.91,0,0,0-.9.56v-.11A11.43,11.43,0,0,1,23.54,9.19a10.25,10.25,0,0,0-3.36,3.59A17.4,17.4,0,0,0,18.72,20"/><path class="cls-1" d="M26.57,9.19c5.72.79,10.2,5.49,10.09,11.1a6.61,6.61,0,0,0-.9-.45,5.57,5.57,0,0,0-4-.11,2.46,2.46,0,0,1-.56.34,14.44,14.44,0,0,0-1.35-7.18,10.23,10.23,0,0,0-3.25-3.7"/><path class="cls-1" d="M25.11,9.07h0a10.25,10.25,0,0,1,4,4.15,15.81,15.81,0,0,1,1.35,6.84c-.22-.11-.34-.22-.56-.34a6.21,6.21,0,0,0-4,0c-.11.11-.34.11-.45.22v8L24.55,29V20c-.22-.11-.34-.11-.56-.22a5.05,5.05,0,0,0-4,0,.85.85,0,0,0-.45.22,15.31,15.31,0,0,1,1.35-6.73,10.14,10.14,0,0,1,4.26-4.15"/><polygon class="cls-1" points="37.5 38.8 38.96 40.93 35.71 40.93 34.25 38.8 23.6 38.8 22.03 40.93 18.66 40.93 20.23 38.8 19.9 38.8 19.45 38.35 11.04 29.94 12.95 28.03 21.02 36.1 38.96 36.1 38.96 38.8 37.5 38.8"/><path class="cls-1" d="M28.69,32.51l-1-1.23-1,1.23Zm-5.38-.22,3.36-4,1.12-1.35,1,1.35,3.36,4.26h4.15a1.35,1.35,0,0,1,0,2.69H23l-1-.45-5.38-5.27a1.52,1.52,0,0,1,0-1.91,1.29,1.29,0,0,1,1.91,0Z"/><path class="cls-1" d="M15,23.54a1.91,1.91,0,1,1-1.91,1.91A1.91,1.91,0,0,1,15,23.54"/></svg>