<svg id="Layer_1" data-name="Layer 1" xmlns="http://www.w3.org/2000/svg" viewBox="0 0 50 50"><defs><style>.cls-1{fill:#0f2b40;}</style></defs><title>empireArtboard 10 copy 4</title><path class="cls-1" d="M26.32,16.86a1.88,1.88,0,1,1-1.88,1.88,1.88,1.88,0,0,1,1.88-1.88"/><path class="cls-1" d="M17.4,18.45a.54.54,0,0,1-.62.44.55.55,0,0,1-.28-.14,1.66,1.66,0,0,1-.63-.88c-.23-.7,0-1.35.35-1.48h.13a.78.78,0,0,1,.42.13,1.77,1.77,0,0,1,.63,1.94m15.39,7.19-6.88-4.18a1.13,1.13,0,0,0-.73-.15l-5.74.77-.66-1.7a3.06,3.06,0,0,0,.74-1.16A4,4,0,0,0,18,14.64a2.86,2.86,0,0,0-2.48-.39,3.34,3.34,0,0,0-1.8,4.31,3.89,3.89,0,0,0,1.51,2,3.05,3.05,0,0,0,1.38.49l1,2.62a1.13,1.13,0,0,0,1.2.71l5.21-.71-.24,2.72-5.1,7.65a1.13,1.13,0,0,0,1.87,1.25l4.59-6.87L28,30.67l1,4.33a1.13,1.13,0,0,0,1.09.87,1.07,1.07,0,0,0,1.09-1.39l-1.13-4.73a1.13,1.13,0,0,0-.4-.64l-3.6-2.81.18-2,5.33,3.26a1.13,1.13,0,1,0,1.2-1.9l0,0Z"/><path class="cls-1" d="M34.83,28.43a1.63,1.63,0,1,1-1.62,1.63,1.62,1.62,0,0,1,1.63-1.62"/></svg>