<svg id="Layer_1" data-name="Layer 1" xmlns="http://www.w3.org/2000/svg" viewBox="0 0 50 50"><defs><style>.cls-1{fill:#0f2b40;}</style></defs><title>empireArtboard 16 copy 3</title><path class="cls-1" d="M23.37,26.52l-1.84,2.15a1,1,0,0,1-.76.35H19.18a1,1,0,0,1-.76-.35l-1.84-2.15a.76.76,0,0,0-1.14,1l2.49,2.88v6.38a.76.76,0,1,0,1.52,0V33.7a.22.22,0,0,1,.21-.21h.69a.22.22,0,0,1,.21.21v3.08a.76.76,0,1,0,1.52,0V30.41l2.49-2.88a.76.76,0,0,0-.07-1.07.85.85,0,0,0-1.14.07"/><path class="cls-1" d="M20,28.29a1.87,1.87,0,1,0-1.87-1.87A1.86,1.86,0,0,0,20,28.29"/><path class="cls-1" d="M33.46,26.8l-1.7,1.87A1.11,1.11,0,0,1,31,29H29.51a1.11,1.11,0,0,1-.76-.35L27,26.8a.76.76,0,0,0-1.14,1l2.43,2.7-1,3a.56.56,0,0,0,.52.73h.45L28,36.68a.78.78,0,1,0,1.56.17l.28-2.46a.11.11,0,0,1,.1-.1h.59a.11.11,0,0,1,.1.1l.28,2.46a.78.78,0,0,0,.76.69h.1a.79.79,0,0,0,.69-.87l-.28-2.39h.45a.54.54,0,0,0,.52-.73l-1-3,2.43-2.7a.77.77,0,0,0-.07-1.07.73.73,0,0,0-1.07,0"/><path class="cls-1" d="M30.23,28.29a1.87,1.87,0,1,0-1.87-1.87,1.86,1.86,0,0,0,1.87,1.87"/><path class="cls-1" d="M41.46,24.51h0a1,1,0,0,0-.42-.69l-6-4.3V15a.4.4,0,0,0-.42-.42H33.46A.4.4,0,0,0,33,15v3l-7.59-5.44a.76.76,0,0,0-.45-.14.7.7,0,0,0-.45.14L9,23.82a1,1,0,0,0-.42.69,1,1,0,0,0,.24.8,1,1,0,0,0,1.39.17l1.52-1.11V37a.4.4,0,0,0,.42.42h1.25a.4.4,0,0,0,.42-.42V22.88L25,14.77l11.27,8.11V37a.4.4,0,0,0,.42.42h1.25a.4.4,0,0,0,.42-.42V24.37l1.49,1.07a1.1,1.1,0,0,0,1.39-.07,1.27,1.27,0,0,0,.24-.87"/><path class="cls-1" d="M26.35,21.64H25a.42.42,0,0,1-.42-.42V19.59a.42.42,0,0,1,.83,0V20.8h.94a.42.42,0,0,1,.42.42.4.4,0,0,1-.42.42m1.7-.42A3.05,3.05,0,1,0,25,24.27a3.05,3.05,0,0,0,3.05-3.05"/></svg>