<svg id="Layer_1" data-name="Layer 1" xmlns="http://www.w3.org/2000/svg" viewBox="0 0 50 50"><defs><style>.cls-1{fill:#0f2b40;}</style></defs><title>empireArtboard 10 copy 5</title><path class="cls-1" d="M23,19.88a.79.79,0,1,1,.79-.79.79.79,0,0,1-.79.79m-7.09,0a.79.79,0,1,1,.79-.79.79.79,0,0,1-.79.79m22.85-5.12H28.54V12a.79.79,0,0,0-.79-.79H11.21a.79.79,0,0,0-.79.79V38A.79.79,0,0,0,12,38V12.79h3.15v4.08a2.36,2.36,0,1,0,1.58,0V12.79h5.52v4.08a2.36,2.36,0,1,0,1.57,0V12.79H27V38a.79.79,0,0,0,1.58,0V16.34H38V38a.79.79,0,0,0,1.58,0V15.55a.79.79,0,0,0-.79-.79"/></svg>