<svg id="Layer_1" data-name="Layer 1" xmlns="http://www.w3.org/2000/svg" viewBox="0 0 50 50"><defs><style>.cls-1{fill:#0f2b40;}</style></defs><title>empireArtboard 10</title><path class="cls-1" d="M30.61,20.16a2,2,0,1,1,2.79-.55,2,2,0,0,1-2.79.55"/><path class="cls-1" d="M21.72,27.55a.57.57,0,1,1,.57-.57.57.57,0,0,1-.57.57m0,1.79a.57.57,0,1,1,.57-.57.57.57,0,0,1-.57.57"/><path class="cls-1" d="M19.43,27.51a.57.57,0,1,1,.57-.57.57.57,0,0,1-.57.57m0,1.79a.57.57,0,1,1,.57-.57.57.57,0,0,1-.57.57m0,1.79a.57.57,0,1,1,.57-.57.57.57,0,0,1-.57.57"/><path class="cls-1" d="M15,15.47a2.86,2.86,0,0,1,1-.21h.29a1.62,1.62,0,0,0,0,1.26,6.44,6.44,0,0,0-.83.92,4.28,4.28,0,0,0-.84,2.27A6.3,6.3,0,0,1,15,15.47m2.21,1.67a2,2,0,0,0,1.6-1.1,2,2,0,0,0,.17-.42,11.1,11.1,0,0,1,3.31,1,11.23,11.23,0,0,1,4.34,3.63A6.12,6.12,0,0,1,26,21.65l-.81-.6a.91.91,0,0,0-1.08,1.46l.72.53a6.19,6.19,0,0,1-3.39,1.51,12.18,12.18,0,0,1-3.12-3.23,7.28,7.28,0,0,1-1.1-4.17M18,13.37a3.68,3.68,0,0,1,1.17-1.21,6.26,6.26,0,0,1,5.69,1.55,7.08,7.08,0,0,0-3.37-.25,7.6,7.6,0,0,0-2.63,1,1,1,0,0,0-.5-.46,1.2,1.2,0,0,0-.66,0,5.8,5.8,0,0,1,.3-.61m2.67,12.31h0a7.28,7.28,0,0,0,5-2l1.27.94a.93.93,0,0,0,.19.11.91.91,0,0,0,.72,0l2-.9,1.68,4.1-2.09,2.7c.26.06.55.15.9.26a5,5,0,0,0,2.25.36l2.55-3.48a1.33,1.33,0,0,0,0-1.27l-1.94-4.64a1.24,1.24,0,0,0-.71-.75,1.35,1.35,0,0,0-1.08,0h0L27.6,22.87l-.76-.57A7.3,7.3,0,0,0,28,18.5a7.45,7.45,0,0,0-7.44-7.59,7.3,7.3,0,0,0-5.06,2,7.43,7.43,0,0,0,5.19,12.75"/><path class="cls-1" d="M37.53,36.34a4.29,4.29,0,0,0-3.48,0,4.67,4.67,0,0,1-3.7,0,4.29,4.29,0,0,0-3.49,0,4.67,4.67,0,0,1-3.7,0,4.29,4.29,0,0,0-3.49,0,4.67,4.67,0,0,1-3.7,0A6.26,6.26,0,0,0,14.22,36a6.26,6.26,0,0,0-1.73.37,6.7,6.7,0,0,1-1.71.37v2.38c.26-.14.85-.27,1.61-.51a4.64,4.64,0,0,1,3.68,0,4.28,4.28,0,0,0,3.49,0,4.72,4.72,0,0,1,3.72,0,4.29,4.29,0,0,0,3.49,0,4.6,4.6,0,0,1,3.68,0,4.29,4.29,0,0,0,3.49,0,4.67,4.67,0,0,1,3.7,0,6.7,6.7,0,0,0,1.6.37V36.58a2.8,2.8,0,0,1-1.7-.24"/><path class="cls-1" d="M37.53,32.47a4.29,4.29,0,0,0-3.48,0,4.67,4.67,0,0,1-3.7,0,4.29,4.29,0,0,0-3.49,0,4.67,4.67,0,0,1-3.7,0,4.29,4.29,0,0,0-3.49,0,4.67,4.67,0,0,1-3.7,0,6.26,6.26,0,0,0-1.76-.37,6.26,6.26,0,0,0-1.73.37,6.7,6.7,0,0,1-1.71.37v2.38c.26-.14.85-.27,1.61-.51a4.64,4.64,0,0,1,3.68,0,4.28,4.28,0,0,0,3.49,0,4.72,4.72,0,0,1,3.72,0,4.29,4.29,0,0,0,3.49,0,4.6,4.6,0,0,1,3.68,0,4.29,4.29,0,0,0,3.49,0,4.67,4.67,0,0,1,3.7,0,6.7,6.7,0,0,0,1.6.37V32.71a2.8,2.8,0,0,1-1.7-.24"/></svg>