<svg id="Layer_1" data-name="Layer 1" xmlns="http://www.w3.org/2000/svg" viewBox="0 0 50 50"><defs><style>.cls-1{fill:#0f2b40;}</style></defs><title>empireArtboard 10 copy 2</title><path class="cls-1" d="M33.9,24.43c-.24-.2-.41-.37-.53-.45a2,2,0,0,1-.69-1.14L31.74,24s-.08.08-.12.08H28.36a1.17,1.17,0,0,0-1.14,1.14,1.14,1.14,0,0,0,1.14,1.14h3.26a2.37,2.37,0,0,0,1.91-.94l.61-.77a0,0,0,0,1,0,0Z"/><path class="cls-1" d="M43.42,18.44l-2.2,0a.77.77,0,0,1-.53-.2c-1.79-1.51-2-1.59-2.28-1.63l-1.51-.28c-.2,0-.45-.08-3.3.45a2.62,2.62,0,0,0-1.63,1l-1.22,1.51a1,1,0,0,0,.12,1.34.86.86,0,0,0,.61.2,1,1,0,0,0,.73-.33l1.22-1.51a.7.7,0,0,1,.53-.28c.37-.08.65-.12.94-.16l-.69,1.79-.12.33c-.49,1.3-.77,2.08-.08,2.73a8,8,0,0,0,.73.61c.94.82,2.36,2,2.36,2a2.49,2.49,0,0,1,.73,1l1.34,3a1.16,1.16,0,0,0,1,.65,1.46,1.46,0,0,0,.45-.08A1.15,1.15,0,0,0,41.22,29l-1.34-3a5.21,5.21,0,0,0-1.3-1.79L37.11,23l1.75-3.83c.16.16.37.33.61.53a2.71,2.71,0,0,0,1.71.65l2.2,0a1,1,0,0,0,0-1.91"/><path class="cls-1" d="M36.24,13.41a2.08,2.08,0,1,1,1.53,2.5,2.08,2.08,0,0,1-1.53-2.5"/><path class="cls-1" d="M10,35.87A2,2,0,1,1,10,32a1.93,1.93,0,0,1,2,2,2,2,0,0,1-2,2M20.14,25.24h-2.2a2.56,2.56,0,0,1,0-5.13h6l-.57.57a1.2,1.2,0,0,0,0,1.67,1.1,1.1,0,0,0,.82.33,1.21,1.21,0,0,0,.81-.33l2.57-2.57a1.2,1.2,0,0,0,0-1.67L25,15.55a1.18,1.18,0,1,0-1.67,1.67l.57.57H17.94a4.93,4.93,0,0,0,0,9.85h2.2a2.57,2.57,0,0,1,0,5.13H14a4.18,4.18,0,1,0,0,2.32h6.11a4.93,4.93,0,1,0,0-9.85"/></svg>