<svg id="Layer_1" data-name="Layer 1" xmlns="http://www.w3.org/2000/svg" viewBox="0 0 50 50"><defs><style>.cls-1{fill:#0f2b40;}</style></defs><title>empireArtboard 16</title><path class="cls-1" d="M36,25a1,1,0,0,1-.75-1.55,2.83,2.83,0,0,0-.12-2.82,4.59,4.59,0,0,1,.12-4.82A1,1,0,0,1,36.72,17a2.82,2.82,0,0,0,.1,2.83,4.6,4.6,0,0,1-.12,4.83A.94.94,0,0,1,36,25"/><path class="cls-1" d="M30.23,25a1,1,0,0,1-.75-1.55,2.83,2.83,0,0,0-.12-2.82,4.59,4.59,0,0,1,.12-4.82A1,1,0,0,1,31,17a2.83,2.83,0,0,0,.1,2.83A4.6,4.6,0,0,1,31,24.64a1,1,0,0,1-.75.36"/><path class="cls-1" d="M21.18,13.54a1,1,0,1,0,1,1,1,1,0,0,0-1-1m0,3.82A2.87,2.87,0,1,1,24,14.49a2.87,2.87,0,0,1-2.87,2.87"/><path class="cls-1" d="M20.22,21.18v6.69a1,1,0,0,0,1,1h5.73a1,1,0,0,1,1,1v5.73a1,1,0,1,0,1.91,0V29.78a2.87,2.87,0,0,0-2.87-2.87H23.09a1,1,0,0,1-1-1V21.18Zm8.6,17.2A2.87,2.87,0,0,1,26,35.51V30.73H21.18a2.87,2.87,0,0,1-2.87-2.87V20.22a1,1,0,0,1,1-1h3.82a1,1,0,0,1,1,1V25h2.87a4.78,4.78,0,0,1,4.78,4.78v5.73a2.87,2.87,0,0,1-2.87,2.87"/><path class="cls-1" d="M14.49,36.46h7.64V34.55H14.49Zm8.6,1.91H13.54a1,1,0,0,1-1-1V33.6a1,1,0,0,1,1-1h9.55a1,1,0,0,1,1,1v3.82a1,1,0,0,1-1,1"/></svg>