<svg id="Layer_1" data-name="Layer 1" xmlns="http://www.w3.org/2000/svg" viewBox="0 0 50 50"><defs><style>.cls-1{fill:#0f2b40;}</style></defs><title>empireArtboard 16 copy</title><polygon class="cls-1" points="33.3 40.57 40.56 40.57 40.56 39.53 33.3 39.53 29.15 39.53 26.41 39.53 9.44 39.53 9.44 40.57 29.15 40.57 33.3 40.57"/><path class="cls-1" d="M26.89,23.13V37.52c0,.59-.29,1-.48,1s-.89-.2-.89-.7V29a.52.52,0,0,0-.52-.52h-.48a.51.51,0,0,0-.34.13l-2.63,2.26a.52.52,0,0,0,.34.92h2.59v1H19.81c-.24,0-.56-.05-.66-.3a1.22,1.22,0,0,1,.42-1.18l2.89-2.68a.52.52,0,0,0,.17-.38V22.94a.52.52,0,0,0-.3-.47,6.37,6.37,0,0,1-3.56-5.7A6.28,6.28,0,0,1,24,10.49H24a.41.41,0,0,1,.25.08.45.45,0,0,1,.19.3v.05a.38.38,0,0,0,0,.08.46.46,0,0,1-.37.38,5.36,5.36,0,0,0-4.46,5.33,5.46,5.46,0,0,0,2.69,4.69.52.52,0,0,0,.41,0,8.93,8.93,0,0,1,4.24.07.52.52,0,0,0,.46,0A5.43,5.43,0,0,0,25.9,11.4a.46.46,0,0,1-.38-.39.45.45,0,0,0,0-.07v-.05a.44.44,0,0,1,.19-.3.42.42,0,0,1,.33-.09,6.28,6.28,0,0,1,5.19,6.22,6.38,6.38,0,0,1-4,5.91.52.52,0,0,0-.33.51m-2.41,7.58H23.29l1.19-1ZM25,19.82a1.56,1.56,0,1,1,1.56-1.56A1.56,1.56,0,0,1,25,19.82m0-7.73a1.45,1.45,0,0,0,.71.33,4.33,4.33,0,0,1,3.59,4.31,4.38,4.38,0,0,1-2.12,3.76,4.58,4.58,0,0,0-.65-.16,2.59,2.59,0,1,0-3.11,0,6.09,6.09,0,0,0-.72.12,4.41,4.41,0,0,1-2-3.69,4.33,4.33,0,0,1,3.59-4.31A1.46,1.46,0,0,0,25,12.1m2.93,25.43V23.45a7.42,7.42,0,0,0,4.34-6.74,7.31,7.31,0,0,0-6.07-7.26,1.46,1.46,0,0,0-1.1.25L25,9.8l-.09-.07a1.46,1.46,0,0,0-1.1-.28,7.31,7.31,0,0,0-6.07,7.26,7.43,7.43,0,0,0,3.85,6.5V28l-2.74,2.56a2.21,2.21,0,0,0-.65,2.32,1.64,1.64,0,0,0,1.62,1h4.67v4a1.88,1.88,0,0,0,1.92,1.74,1.83,1.83,0,0,0,1.52-2"/></svg>